<mxfile host="app.diagrams.net" modified="2023-11-08T10:54:27.215Z" agent="Mozilla/5.0 (Windows NT 10.0; Win64; x64) AppleWebKit/537.36 (KHTML, like Gecko) Chrome/119.0.0.0 Safari/537.36" version="22.0.8" etag="leND63mnB1gSuCGurZAs" type="device">
  <diagram id="m6bESPZwObmYaEgWGbTF" name="Page-1">
    <mxGraphModel dx="1689" dy="879" grid="1" gridSize="10" guides="1" tooltips="1" connect="1" arrows="1" fold="1" page="1" pageScale="1" pageWidth="1100" pageHeight="850" math="0" shadow="0">
      <root>
        <mxCell id="0" />
        <mxCell id="1" parent="0" />
        <mxCell id="Y-AigFBL3pyhYKcH8et9-1" value="id_kategori" style="ellipse;whiteSpace=wrap;html=1;align=center;fillColor=#f5f5f5;fontColor=#333333;strokeColor=#666666;" vertex="1" parent="1">
          <mxGeometry x="10" y="70" width="100" height="40" as="geometry" />
        </mxCell>
        <mxCell id="Y-AigFBL3pyhYKcH8et9-19" value="" style="edgeStyle=orthogonalEdgeStyle;rounded=0;orthogonalLoop=1;jettySize=auto;html=1;" edge="1" parent="1" source="Y-AigFBL3pyhYKcH8et9-2" target="Y-AigFBL3pyhYKcH8et9-18">
          <mxGeometry relative="1" as="geometry" />
        </mxCell>
        <mxCell id="Y-AigFBL3pyhYKcH8et9-20" value="M" style="edgeLabel;html=1;align=center;verticalAlign=middle;resizable=0;points=[];" vertex="1" connectable="0" parent="Y-AigFBL3pyhYKcH8et9-19">
          <mxGeometry x="-0.1452" y="1" relative="1" as="geometry">
            <mxPoint as="offset" />
          </mxGeometry>
        </mxCell>
        <mxCell id="Y-AigFBL3pyhYKcH8et9-47" value="" style="edgeStyle=orthogonalEdgeStyle;rounded=0;orthogonalLoop=1;jettySize=auto;html=1;" edge="1" parent="1" source="Y-AigFBL3pyhYKcH8et9-2" target="Y-AigFBL3pyhYKcH8et9-46">
          <mxGeometry relative="1" as="geometry" />
        </mxCell>
        <mxCell id="Y-AigFBL3pyhYKcH8et9-48" value="M" style="edgeLabel;html=1;align=center;verticalAlign=middle;resizable=0;points=[];" vertex="1" connectable="0" parent="Y-AigFBL3pyhYKcH8et9-47">
          <mxGeometry x="-0.1949" y="-1" relative="1" as="geometry">
            <mxPoint as="offset" />
          </mxGeometry>
        </mxCell>
        <mxCell id="Y-AigFBL3pyhYKcH8et9-2" value="product" style="whiteSpace=wrap;html=1;align=center;fillColor=#f8cecc;strokeColor=#b85450;" vertex="1" parent="1">
          <mxGeometry x="130" y="150" width="100" height="40" as="geometry" />
        </mxCell>
        <mxCell id="Y-AigFBL3pyhYKcH8et9-14" style="edgeStyle=orthogonalEdgeStyle;rounded=0;orthogonalLoop=1;jettySize=auto;html=1;" edge="1" parent="1" source="Y-AigFBL3pyhYKcH8et9-3" target="Y-AigFBL3pyhYKcH8et9-2">
          <mxGeometry relative="1" as="geometry" />
        </mxCell>
        <mxCell id="Y-AigFBL3pyhYKcH8et9-3" value="id_product" style="ellipse;whiteSpace=wrap;html=1;align=center;fontStyle=4;fillColor=#f5f5f5;fontColor=#333333;strokeColor=#666666;" vertex="1" parent="1">
          <mxGeometry x="130" y="20" width="100" height="40" as="geometry" />
        </mxCell>
        <mxCell id="Y-AigFBL3pyhYKcH8et9-4" value="nama_product" style="ellipse;whiteSpace=wrap;html=1;align=center;fillColor=#f8cecc;strokeColor=#b85450;" vertex="1" parent="1">
          <mxGeometry x="10" y="200" width="100" height="40" as="geometry" />
        </mxCell>
        <mxCell id="Y-AigFBL3pyhYKcH8et9-44" style="edgeStyle=orthogonalEdgeStyle;rounded=0;orthogonalLoop=1;jettySize=auto;html=1;entryX=0.75;entryY=1;entryDx=0;entryDy=0;" edge="1" parent="1" source="Y-AigFBL3pyhYKcH8et9-5" target="Y-AigFBL3pyhYKcH8et9-2">
          <mxGeometry relative="1" as="geometry" />
        </mxCell>
        <mxCell id="Y-AigFBL3pyhYKcH8et9-5" value="harga_product" style="ellipse;whiteSpace=wrap;html=1;align=center;fillColor=#f8cecc;strokeColor=#b85450;" vertex="1" parent="1">
          <mxGeometry x="240" y="220" width="100" height="60" as="geometry" />
        </mxCell>
        <mxCell id="Y-AigFBL3pyhYKcH8et9-6" value="deskripsi" style="ellipse;whiteSpace=wrap;html=1;align=center;fillColor=#f8cecc;strokeColor=#b85450;" vertex="1" parent="1">
          <mxGeometry x="250" y="70" width="100" height="40" as="geometry" />
        </mxCell>
        <mxCell id="Y-AigFBL3pyhYKcH8et9-12" style="edgeStyle=orthogonalEdgeStyle;rounded=0;orthogonalLoop=1;jettySize=auto;html=1;entryX=0.858;entryY=0.007;entryDx=0;entryDy=0;entryPerimeter=0;" edge="1" parent="1" source="Y-AigFBL3pyhYKcH8et9-6" target="Y-AigFBL3pyhYKcH8et9-2">
          <mxGeometry relative="1" as="geometry" />
        </mxCell>
        <mxCell id="Y-AigFBL3pyhYKcH8et9-15" style="edgeStyle=orthogonalEdgeStyle;rounded=0;orthogonalLoop=1;jettySize=auto;html=1;entryX=0.334;entryY=0.054;entryDx=0;entryDy=0;entryPerimeter=0;" edge="1" parent="1" source="Y-AigFBL3pyhYKcH8et9-1" target="Y-AigFBL3pyhYKcH8et9-2">
          <mxGeometry relative="1" as="geometry" />
        </mxCell>
        <mxCell id="Y-AigFBL3pyhYKcH8et9-16" style="edgeStyle=orthogonalEdgeStyle;rounded=0;orthogonalLoop=1;jettySize=auto;html=1;entryX=0.091;entryY=1.11;entryDx=0;entryDy=0;entryPerimeter=0;" edge="1" parent="1" source="Y-AigFBL3pyhYKcH8et9-4" target="Y-AigFBL3pyhYKcH8et9-2">
          <mxGeometry relative="1" as="geometry" />
        </mxCell>
        <mxCell id="Y-AigFBL3pyhYKcH8et9-25" value="" style="edgeStyle=orthogonalEdgeStyle;rounded=0;orthogonalLoop=1;jettySize=auto;html=1;" edge="1" parent="1" source="Y-AigFBL3pyhYKcH8et9-18" target="Y-AigFBL3pyhYKcH8et9-24">
          <mxGeometry relative="1" as="geometry" />
        </mxCell>
        <mxCell id="Y-AigFBL3pyhYKcH8et9-27" value="1" style="edgeLabel;html=1;align=center;verticalAlign=middle;resizable=0;points=[];" vertex="1" connectable="0" parent="Y-AigFBL3pyhYKcH8et9-25">
          <mxGeometry x="-0.2132" y="-1" relative="1" as="geometry">
            <mxPoint as="offset" />
          </mxGeometry>
        </mxCell>
        <mxCell id="Y-AigFBL3pyhYKcH8et9-18" value="Termasuk" style="rhombus;whiteSpace=wrap;html=1;fillColor=#ffff88;strokeColor=#36393d;" vertex="1" parent="1">
          <mxGeometry x="140" y="290" width="80" height="80" as="geometry" />
        </mxCell>
        <mxCell id="Y-AigFBL3pyhYKcH8et9-24" value="kategori" style="whiteSpace=wrap;html=1;fillColor=#d5e8d4;strokeColor=#82b366;" vertex="1" parent="1">
          <mxGeometry x="120" y="460" width="120" height="60" as="geometry" />
        </mxCell>
        <mxCell id="Y-AigFBL3pyhYKcH8et9-39" style="edgeStyle=orthogonalEdgeStyle;rounded=0;orthogonalLoop=1;jettySize=auto;html=1;entryX=0.75;entryY=1;entryDx=0;entryDy=0;" edge="1" parent="1" source="Y-AigFBL3pyhYKcH8et9-29" target="Y-AigFBL3pyhYKcH8et9-24">
          <mxGeometry relative="1" as="geometry" />
        </mxCell>
        <mxCell id="Y-AigFBL3pyhYKcH8et9-29" value="nama_product" style="ellipse;whiteSpace=wrap;html=1;align=center;fillColor=#d5e8d4;strokeColor=#82b366;" vertex="1" parent="1">
          <mxGeometry x="250" y="640" width="100" height="40" as="geometry" />
        </mxCell>
        <mxCell id="Y-AigFBL3pyhYKcH8et9-41" style="edgeStyle=orthogonalEdgeStyle;rounded=0;orthogonalLoop=1;jettySize=auto;html=1;entryX=1;entryY=0.75;entryDx=0;entryDy=0;" edge="1" parent="1" source="Y-AigFBL3pyhYKcH8et9-30" target="Y-AigFBL3pyhYKcH8et9-24">
          <mxGeometry relative="1" as="geometry" />
        </mxCell>
        <mxCell id="Y-AigFBL3pyhYKcH8et9-30" value="nama_product" style="ellipse;whiteSpace=wrap;html=1;align=center;fillColor=#d5e8d4;strokeColor=#82b366;" vertex="1" parent="1">
          <mxGeometry x="310" y="570" width="100" height="40" as="geometry" />
        </mxCell>
        <mxCell id="Y-AigFBL3pyhYKcH8et9-40" style="edgeStyle=orthogonalEdgeStyle;rounded=0;orthogonalLoop=1;jettySize=auto;html=1;" edge="1" parent="1" source="Y-AigFBL3pyhYKcH8et9-31" target="Y-AigFBL3pyhYKcH8et9-24">
          <mxGeometry relative="1" as="geometry" />
        </mxCell>
        <mxCell id="Y-AigFBL3pyhYKcH8et9-31" value="nama_product" style="ellipse;whiteSpace=wrap;html=1;align=center;fillColor=#d5e8d4;strokeColor=#82b366;" vertex="1" parent="1">
          <mxGeometry x="330" y="470" width="100" height="40" as="geometry" />
        </mxCell>
        <mxCell id="Y-AigFBL3pyhYKcH8et9-38" style="edgeStyle=orthogonalEdgeStyle;rounded=0;orthogonalLoop=1;jettySize=auto;html=1;entryX=0;entryY=0.75;entryDx=0;entryDy=0;" edge="1" parent="1" source="Y-AigFBL3pyhYKcH8et9-32" target="Y-AigFBL3pyhYKcH8et9-24">
          <mxGeometry relative="1" as="geometry" />
        </mxCell>
        <mxCell id="Y-AigFBL3pyhYKcH8et9-32" value="nama_product" style="ellipse;whiteSpace=wrap;html=1;align=center;fillColor=#d5e8d4;strokeColor=#82b366;" vertex="1" parent="1">
          <mxGeometry x="20" y="610" width="100" height="40" as="geometry" />
        </mxCell>
        <mxCell id="Y-AigFBL3pyhYKcH8et9-43" style="edgeStyle=orthogonalEdgeStyle;rounded=0;orthogonalLoop=1;jettySize=auto;html=1;entryX=0.5;entryY=1;entryDx=0;entryDy=0;" edge="1" parent="1" source="Y-AigFBL3pyhYKcH8et9-42" target="Y-AigFBL3pyhYKcH8et9-24">
          <mxGeometry relative="1" as="geometry" />
        </mxCell>
        <mxCell id="Y-AigFBL3pyhYKcH8et9-42" value="id_kategori" style="ellipse;whiteSpace=wrap;html=1;align=center;fontStyle=4;fillColor=#f5f5f5;fontColor=#333333;strokeColor=#666666;" vertex="1" parent="1">
          <mxGeometry x="130" y="700" width="100" height="50" as="geometry" />
        </mxCell>
        <mxCell id="Y-AigFBL3pyhYKcH8et9-50" value="" style="edgeStyle=orthogonalEdgeStyle;rounded=0;orthogonalLoop=1;jettySize=auto;html=1;" edge="1" parent="1" source="Y-AigFBL3pyhYKcH8et9-46" target="Y-AigFBL3pyhYKcH8et9-49">
          <mxGeometry relative="1" as="geometry" />
        </mxCell>
        <mxCell id="Y-AigFBL3pyhYKcH8et9-51" value="M" style="edgeLabel;html=1;align=center;verticalAlign=middle;resizable=0;points=[];" vertex="1" connectable="0" parent="Y-AigFBL3pyhYKcH8et9-50">
          <mxGeometry x="0.0143" y="-1" relative="1" as="geometry">
            <mxPoint as="offset" />
          </mxGeometry>
        </mxCell>
        <mxCell id="Y-AigFBL3pyhYKcH8et9-67" value="" style="edgeStyle=orthogonalEdgeStyle;rounded=0;orthogonalLoop=1;jettySize=auto;html=1;" edge="1" parent="1" source="Y-AigFBL3pyhYKcH8et9-46" target="Y-AigFBL3pyhYKcH8et9-66">
          <mxGeometry relative="1" as="geometry" />
        </mxCell>
        <mxCell id="Y-AigFBL3pyhYKcH8et9-46" value="Dibeli" style="rhombus;whiteSpace=wrap;html=1;fillColor=#ffff88;strokeColor=#36393d;" vertex="1" parent="1">
          <mxGeometry x="380" y="130" width="80" height="80" as="geometry" />
        </mxCell>
        <mxCell id="Y-AigFBL3pyhYKcH8et9-89" value="" style="edgeStyle=orthogonalEdgeStyle;rounded=0;orthogonalLoop=1;jettySize=auto;html=1;" edge="1" parent="1" source="Y-AigFBL3pyhYKcH8et9-49" target="Y-AigFBL3pyhYKcH8et9-88">
          <mxGeometry relative="1" as="geometry" />
        </mxCell>
        <mxCell id="Y-AigFBL3pyhYKcH8et9-90" value="M" style="edgeLabel;html=1;align=center;verticalAlign=middle;resizable=0;points=[];" vertex="1" connectable="0" parent="Y-AigFBL3pyhYKcH8et9-89">
          <mxGeometry x="-0.0872" y="1" relative="1" as="geometry">
            <mxPoint as="offset" />
          </mxGeometry>
        </mxCell>
        <mxCell id="Y-AigFBL3pyhYKcH8et9-49" value="pesanan" style="whiteSpace=wrap;html=1;fillColor=#e1d5e7;strokeColor=#9673a6;" vertex="1" parent="1">
          <mxGeometry x="580" y="140" width="120" height="60" as="geometry" />
        </mxCell>
        <mxCell id="Y-AigFBL3pyhYKcH8et9-58" style="edgeStyle=orthogonalEdgeStyle;rounded=0;orthogonalLoop=1;jettySize=auto;html=1;" edge="1" parent="1" source="Y-AigFBL3pyhYKcH8et9-52" target="Y-AigFBL3pyhYKcH8et9-49">
          <mxGeometry relative="1" as="geometry" />
        </mxCell>
        <mxCell id="Y-AigFBL3pyhYKcH8et9-52" value="id_pesanan" style="ellipse;whiteSpace=wrap;html=1;align=center;fontStyle=4;fillColor=#f5f5f5;fontColor=#333333;strokeColor=#666666;" vertex="1" parent="1">
          <mxGeometry x="520" y="50" width="100" height="40" as="geometry" />
        </mxCell>
        <mxCell id="Y-AigFBL3pyhYKcH8et9-53" value="id_pelanggan" style="ellipse;whiteSpace=wrap;html=1;align=center;fillColor=#f5f5f5;fontColor=#333333;strokeColor=#666666;" vertex="1" parent="1">
          <mxGeometry x="650" y="30" width="100" height="40" as="geometry" />
        </mxCell>
        <mxCell id="Y-AigFBL3pyhYKcH8et9-61" style="edgeStyle=orthogonalEdgeStyle;rounded=0;orthogonalLoop=1;jettySize=auto;html=1;entryX=0.5;entryY=1;entryDx=0;entryDy=0;" edge="1" parent="1" source="Y-AigFBL3pyhYKcH8et9-54" target="Y-AigFBL3pyhYKcH8et9-49">
          <mxGeometry relative="1" as="geometry" />
        </mxCell>
        <mxCell id="Y-AigFBL3pyhYKcH8et9-54" value="id_product" style="ellipse;whiteSpace=wrap;html=1;align=center;fillColor=#f5f5f5;fontColor=#333333;strokeColor=#666666;" vertex="1" parent="1">
          <mxGeometry x="590" y="260" width="100" height="40" as="geometry" />
        </mxCell>
        <mxCell id="Y-AigFBL3pyhYKcH8et9-65" style="edgeStyle=orthogonalEdgeStyle;rounded=0;orthogonalLoop=1;jettySize=auto;html=1;entryX=1;entryY=0.25;entryDx=0;entryDy=0;" edge="1" parent="1" source="Y-AigFBL3pyhYKcH8et9-55" target="Y-AigFBL3pyhYKcH8et9-49">
          <mxGeometry relative="1" as="geometry" />
        </mxCell>
        <mxCell id="Y-AigFBL3pyhYKcH8et9-55" value="tanggal_pesanan" style="ellipse;whiteSpace=wrap;html=1;align=center;fillColor=#e1d5e7;strokeColor=#9673a6;" vertex="1" parent="1">
          <mxGeometry x="760" y="70" width="110" height="60" as="geometry" />
        </mxCell>
        <mxCell id="Y-AigFBL3pyhYKcH8et9-63" style="edgeStyle=orthogonalEdgeStyle;rounded=0;orthogonalLoop=1;jettySize=auto;html=1;entryX=0.75;entryY=1;entryDx=0;entryDy=0;" edge="1" parent="1" source="Y-AigFBL3pyhYKcH8et9-56" target="Y-AigFBL3pyhYKcH8et9-49">
          <mxGeometry relative="1" as="geometry" />
        </mxCell>
        <mxCell id="Y-AigFBL3pyhYKcH8et9-56" value="total_pesanan" style="ellipse;whiteSpace=wrap;html=1;align=center;fillColor=#e1d5e7;strokeColor=#9673a6;" vertex="1" parent="1">
          <mxGeometry x="720" y="220" width="100" height="60" as="geometry" />
        </mxCell>
        <mxCell id="Y-AigFBL3pyhYKcH8et9-59" style="edgeStyle=orthogonalEdgeStyle;rounded=0;orthogonalLoop=1;jettySize=auto;html=1;entryX=0.564;entryY=0.017;entryDx=0;entryDy=0;entryPerimeter=0;" edge="1" parent="1" source="Y-AigFBL3pyhYKcH8et9-53" target="Y-AigFBL3pyhYKcH8et9-49">
          <mxGeometry relative="1" as="geometry" />
        </mxCell>
        <mxCell id="Y-AigFBL3pyhYKcH8et9-66" value="product_pesanan" style="whiteSpace=wrap;html=1;fillColor=#dae8fc;strokeColor=#6c8ebf;" vertex="1" parent="1">
          <mxGeometry x="360" y="300" width="120" height="60" as="geometry" />
        </mxCell>
        <mxCell id="Y-AigFBL3pyhYKcH8et9-78" style="edgeStyle=orthogonalEdgeStyle;rounded=0;orthogonalLoop=1;jettySize=auto;html=1;entryX=1;entryY=0.25;entryDx=0;entryDy=0;" edge="1" parent="1" source="Y-AigFBL3pyhYKcH8et9-70" target="Y-AigFBL3pyhYKcH8et9-66">
          <mxGeometry relative="1" as="geometry" />
        </mxCell>
        <mxCell id="Y-AigFBL3pyhYKcH8et9-70" value="id_pesanan" style="ellipse;whiteSpace=wrap;html=1;align=center;fillColor=#f5f5f5;fontColor=#333333;strokeColor=#666666;" vertex="1" parent="1">
          <mxGeometry x="470" y="210" width="100" height="40" as="geometry" />
        </mxCell>
        <mxCell id="Y-AigFBL3pyhYKcH8et9-79" style="edgeStyle=orthogonalEdgeStyle;rounded=0;orthogonalLoop=1;jettySize=auto;html=1;" edge="1" parent="1" source="Y-AigFBL3pyhYKcH8et9-71" target="Y-AigFBL3pyhYKcH8et9-66">
          <mxGeometry relative="1" as="geometry" />
        </mxCell>
        <mxCell id="Y-AigFBL3pyhYKcH8et9-71" value="id_product_pesanan" style="ellipse;whiteSpace=wrap;html=1;align=center;fontStyle=4;fillColor=#f5f5f5;fontColor=#333333;strokeColor=#666666;" vertex="1" parent="1">
          <mxGeometry x="560" y="325" width="120" height="60" as="geometry" />
        </mxCell>
        <mxCell id="Y-AigFBL3pyhYKcH8et9-80" style="edgeStyle=orthogonalEdgeStyle;rounded=0;orthogonalLoop=1;jettySize=auto;html=1;entryX=1;entryY=0.75;entryDx=0;entryDy=0;" edge="1" parent="1" source="Y-AigFBL3pyhYKcH8et9-72" target="Y-AigFBL3pyhYKcH8et9-66">
          <mxGeometry relative="1" as="geometry" />
        </mxCell>
        <mxCell id="Y-AigFBL3pyhYKcH8et9-72" value="id_product" style="ellipse;whiteSpace=wrap;html=1;align=center;fillColor=#f5f5f5;fontColor=#333333;strokeColor=#666666;" vertex="1" parent="1">
          <mxGeometry x="540" y="395" width="100" height="40" as="geometry" />
        </mxCell>
        <mxCell id="Y-AigFBL3pyhYKcH8et9-83" style="edgeStyle=orthogonalEdgeStyle;rounded=0;orthogonalLoop=1;jettySize=auto;html=1;" edge="1" parent="1" source="Y-AigFBL3pyhYKcH8et9-73" target="Y-AigFBL3pyhYKcH8et9-66">
          <mxGeometry relative="1" as="geometry" />
        </mxCell>
        <mxCell id="Y-AigFBL3pyhYKcH8et9-73" value="jumlah" style="ellipse;whiteSpace=wrap;html=1;align=center;fillColor=#dae8fc;strokeColor=#6c8ebf;" vertex="1" parent="1">
          <mxGeometry x="290" y="400" width="100" height="60" as="geometry" />
        </mxCell>
        <mxCell id="Y-AigFBL3pyhYKcH8et9-74" value="waktu pesanan" style="ellipse;whiteSpace=wrap;html=1;align=center;fillColor=#dae8fc;strokeColor=#6c8ebf;" vertex="1" parent="1">
          <mxGeometry x="230" y="310" width="100" height="60" as="geometry" />
        </mxCell>
        <mxCell id="Y-AigFBL3pyhYKcH8et9-81" style="edgeStyle=orthogonalEdgeStyle;rounded=0;orthogonalLoop=1;jettySize=auto;html=1;entryX=0.75;entryY=1;entryDx=0;entryDy=0;" edge="1" parent="1" source="Y-AigFBL3pyhYKcH8et9-75" target="Y-AigFBL3pyhYKcH8et9-66">
          <mxGeometry relative="1" as="geometry" />
        </mxCell>
        <mxCell id="Y-AigFBL3pyhYKcH8et9-75" value="total_harga" style="ellipse;whiteSpace=wrap;html=1;align=center;fillColor=#dae8fc;strokeColor=#6c8ebf;" vertex="1" parent="1">
          <mxGeometry x="400" y="395" width="100" height="60" as="geometry" />
        </mxCell>
        <mxCell id="Y-AigFBL3pyhYKcH8et9-84" style="edgeStyle=orthogonalEdgeStyle;rounded=0;orthogonalLoop=1;jettySize=auto;html=1;entryX=0.017;entryY=0.661;entryDx=0;entryDy=0;entryPerimeter=0;" edge="1" parent="1" source="Y-AigFBL3pyhYKcH8et9-74" target="Y-AigFBL3pyhYKcH8et9-66">
          <mxGeometry relative="1" as="geometry" />
        </mxCell>
        <mxCell id="Y-AigFBL3pyhYKcH8et9-92" value="" style="edgeStyle=orthogonalEdgeStyle;rounded=0;orthogonalLoop=1;jettySize=auto;html=1;" edge="1" parent="1" source="Y-AigFBL3pyhYKcH8et9-88" target="Y-AigFBL3pyhYKcH8et9-91">
          <mxGeometry relative="1" as="geometry" />
        </mxCell>
        <mxCell id="Y-AigFBL3pyhYKcH8et9-93" value="1" style="edgeLabel;html=1;align=center;verticalAlign=middle;resizable=0;points=[];" vertex="1" connectable="0" parent="Y-AigFBL3pyhYKcH8et9-92">
          <mxGeometry x="-0.3231" y="-1" relative="1" as="geometry">
            <mxPoint as="offset" />
          </mxGeometry>
        </mxCell>
        <mxCell id="Y-AigFBL3pyhYKcH8et9-88" value="memiliki" style="rhombus;whiteSpace=wrap;html=1;fillColor=#ffff88;strokeColor=#36393d;" vertex="1" parent="1">
          <mxGeometry x="890" y="130" width="80" height="80" as="geometry" />
        </mxCell>
        <mxCell id="Y-AigFBL3pyhYKcH8et9-91" value="pelanggan" style="whiteSpace=wrap;html=1;fillColor=#fff2cc;strokeColor=#d6b656;" vertex="1" parent="1">
          <mxGeometry x="870" y="340" width="120" height="60" as="geometry" />
        </mxCell>
        <mxCell id="Y-AigFBL3pyhYKcH8et9-104" style="edgeStyle=orthogonalEdgeStyle;rounded=0;orthogonalLoop=1;jettySize=auto;html=1;entryX=0;entryY=0.25;entryDx=0;entryDy=0;" edge="1" parent="1" source="Y-AigFBL3pyhYKcH8et9-94" target="Y-AigFBL3pyhYKcH8et9-91">
          <mxGeometry relative="1" as="geometry" />
        </mxCell>
        <mxCell id="Y-AigFBL3pyhYKcH8et9-94" value="id_pelanggan" style="ellipse;whiteSpace=wrap;html=1;align=center;fontStyle=4;fillColor=#f5f5f5;fontColor=#333333;strokeColor=#666666;" vertex="1" parent="1">
          <mxGeometry x="700" y="335" width="100" height="40" as="geometry" />
        </mxCell>
        <mxCell id="Y-AigFBL3pyhYKcH8et9-105" style="edgeStyle=orthogonalEdgeStyle;rounded=0;orthogonalLoop=1;jettySize=auto;html=1;entryX=0;entryY=0.5;entryDx=0;entryDy=0;" edge="1" parent="1" source="Y-AigFBL3pyhYKcH8et9-95" target="Y-AigFBL3pyhYKcH8et9-91">
          <mxGeometry relative="1" as="geometry" />
        </mxCell>
        <mxCell id="Y-AigFBL3pyhYKcH8et9-95" value="nama_pelanggan" style="ellipse;whiteSpace=wrap;html=1;align=center;fillColor=#fff2cc;strokeColor=#d6b656;" vertex="1" parent="1">
          <mxGeometry x="690" y="420" width="100" height="60" as="geometry" />
        </mxCell>
        <mxCell id="Y-AigFBL3pyhYKcH8et9-102" style="edgeStyle=orthogonalEdgeStyle;rounded=0;orthogonalLoop=1;jettySize=auto;html=1;" edge="1" parent="1" source="Y-AigFBL3pyhYKcH8et9-96" target="Y-AigFBL3pyhYKcH8et9-91">
          <mxGeometry relative="1" as="geometry" />
        </mxCell>
        <mxCell id="Y-AigFBL3pyhYKcH8et9-96" value="email" style="ellipse;whiteSpace=wrap;html=1;align=center;fillColor=#fff2cc;strokeColor=#d6b656;" vertex="1" parent="1">
          <mxGeometry x="880" y="580" width="100" height="60" as="geometry" />
        </mxCell>
        <mxCell id="Y-AigFBL3pyhYKcH8et9-100" style="edgeStyle=orthogonalEdgeStyle;rounded=0;orthogonalLoop=1;jettySize=auto;html=1;entryX=0.25;entryY=1;entryDx=0;entryDy=0;" edge="1" parent="1" source="Y-AigFBL3pyhYKcH8et9-97" target="Y-AigFBL3pyhYKcH8et9-91">
          <mxGeometry relative="1" as="geometry" />
        </mxCell>
        <mxCell id="Y-AigFBL3pyhYKcH8et9-97" value="no_telepon" style="ellipse;whiteSpace=wrap;html=1;align=center;fillColor=#fff2cc;strokeColor=#d6b656;" vertex="1" parent="1">
          <mxGeometry x="765" y="540" width="100" height="60" as="geometry" />
        </mxCell>
        <mxCell id="Y-AigFBL3pyhYKcH8et9-103" style="edgeStyle=orthogonalEdgeStyle;rounded=0;orthogonalLoop=1;jettySize=auto;html=1;entryX=1;entryY=0.5;entryDx=0;entryDy=0;" edge="1" parent="1" source="Y-AigFBL3pyhYKcH8et9-98" target="Y-AigFBL3pyhYKcH8et9-91">
          <mxGeometry relative="1" as="geometry" />
        </mxCell>
        <mxCell id="Y-AigFBL3pyhYKcH8et9-98" value="alamat" style="ellipse;whiteSpace=wrap;html=1;align=center;fillColor=#fff2cc;strokeColor=#d6b656;" vertex="1" parent="1">
          <mxGeometry x="960" y="470" width="100" height="60" as="geometry" />
        </mxCell>
      </root>
    </mxGraphModel>
  </diagram>
</mxfile>
